#N canvas 29 342 230 236 10;
#X obj -67 38 route 0 1 2 3 4 5 6 7;
#X obj -67 9 inlet 0-to-7;
#X obj 68 55 single-grain;
#X obj 68 77 single-grain;
#X obj 68 99 single-grain;
#X obj 68 121 single-grain;
#X obj 68 143 single-grain;
#X obj 68 165 single-grain;
#X obj 68 187 single-grain;
#X obj 68 209 single-grain;
#X connect 0 0 2 0;
#X connect 0 1 3 0;
#X connect 0 2 4 0;
#X connect 0 3 5 0;
#X connect 0 4 6 0;
#X connect 0 5 7 0;
#X connect 0 6 8 0;
#X connect 0 7 9 0;
#X connect 1 0 0 0;
