#N canvas 637 387 250 263 10;
#X obj 33 38 route 0 1 2 3 4 5 6 7;
#X obj 33 9 inlet 0-to-7;
#X obj -72 235 outlet~ L;
#X obj -2 235 outlet~ R;
#X obj 68 235 outlet~ Mono;
#X obj -72 55 single-grain;
#X obj -72 77 single-grain;
#X obj -72 99 single-grain;
#X obj -72 121 single-grain;
#X obj -72 143 single-grain;
#X obj -72 165 single-grain;
#X obj -72 187 single-grain;
#X obj -72 209 single-grain;
#X connect 0 0 5 3;
#X connect 0 1 6 3;
#X connect 0 2 7 3;
#X connect 0 3 8 3;
#X connect 0 4 9 3;
#X connect 0 5 10 3;
#X connect 0 6 11 3;
#X connect 0 7 12 3;
#X connect 1 0 0 0;
#X connect 5 0 6 0;
#X connect 5 1 6 1;
#X connect 5 2 6 2;
#X connect 6 0 7 0;
#X connect 6 1 7 1;
#X connect 6 2 7 2;
#X connect 7 0 8 0;
#X connect 7 1 8 1;
#X connect 7 2 8 2;
#X connect 8 0 9 0;
#X connect 8 1 9 1;
#X connect 8 2 9 2;
#X connect 9 0 10 0;
#X connect 9 1 10 1;
#X connect 9 2 10 2;
#X connect 10 0 11 0;
#X connect 10 1 11 1;
#X connect 10 2 11 2;
#X connect 11 0 12 0;
#X connect 11 1 12 1;
#X connect 11 2 12 2;
#X connect 12 0 2 0;
#X connect 12 1 3 0;
#X connect 12 2 4 0;
