#N canvas 43 22 1172 738 10;
#X obj 342 719 cnv 15 230 150 empty empty pan_del_grano 5 12 0 14 -261234
-66577 0;
#X obj 353 257 vline~;
#X msg 353 235 0 \, 1 \$1 0;
#X obj 286 274 *~ 2048;
#X obj 286 663 tabread4~ grain-env;
#X obj 343 292 cnv 15 240 170 empty empty pitch_del_grano 5 12 0 14
-232576 -66577 0;
#X obj 353 437 *~;
#X text 267 886 se i parametri locali del grano variano solo al momento
del trigger iniziale non cè problema per cui occorra utilizzare sample
and hold di sorta;
#X obj 342 469 cnv 15 190 180 empty empty start_del_grano 5 12 0 14
-203904 -66577 0;
#X obj 191 632 +~;
#X text 461 541 samples;
#X obj 191 454 *~;
#X obj 191 427 /~ 1000;
#X obj 191 401 sig~;
#X obj 191 680 *~;
#X obj 191 861 *~;
#X obj 272 861 *~;
#X obj 191 823 *~ 0.5;
#X obj 191 656 tabread4~ src1;
#X obj 11 17 inlet~ L;
#X obj 71 17 inlet~ R;
#X obj 131 17 inlet~ M;
#X obj 131 878 +~;
#X obj 71 878 +~;
#X obj 11 878 +~;
#X obj 11 906 outlet~ L;
#X obj 71 906 outlet~ R;
#X obj 131 906 outlet~ M;
#X obj 191 218 f;
#X obj 368 410 sig~;
#X obj 356 615 sig~;
#X obj 351 767 clip~ 0 1;
#X obj 351 789 *~ 0.25;
#X obj 351 844 cos~;
#X obj 385 822 -~ 0.25;
#X obj 385 844 cos~;
#X obj 351 744 sig~;
#X obj 423 22 inlet trigger;
#X obj 486 75 s \$0-pan;
#X obj 454 117 s \$0-start;
#X obj 438 137 s \$0-pitch;
#X obj 423 157 s \$0-duration;
#X floatatom 496 414 5 0 0 0 - - -;
#X floatatom 496 393 5 0 0 0 - - -;
#X floatatom 491 593 5 0 0 0 - - -;
#X floatatom 491 572 5 0 0 0 - - -;
#X floatatom 495 848 5 0 0 0 - - -;
#X floatatom 495 827 5 0 0 0 - - -;
#X obj 439 518 r mystart;
#X obj 496 340 r mypitch;
#X obj 495 772 r mypan;
#X obj 356 500 r \$0-start;
#X obj 424 321 r \$0-pitch;
#X obj 436 748 r \$0-pan;
#X obj 436 770 t b b;
#X obj 463 798 myrandom;
#X obj 436 798 f;
#X obj 436 822 *;
#X obj 495 748 r grainpan;
#X obj 436 846 +;
#X obj 356 522 t b b;
#X obj 383 547 myrandom;
#X obj 439 572 * 48000;
#X obj 439 592 / 1000;
#X obj 356 547 f;
#X obj 356 570 *;
#X obj 356 592 +;
#X obj 496 320 r grainpitch;
#X obj 424 343 t b b;
#X obj 451 367 myrandom;
#X obj 368 343 swap 2;
#X obj 368 365 pow;
#X obj 368 321 / 12;
#X obj 368 387 * 48000;
#X obj 424 368 f;
#X obj 424 390 *;
#X obj 424 412 +;
#X obj 439 498 r grainstart;
#X obj 174 42 cnv 15 220 170 empty empty durata_del_grano 5 12 0 14
-204800 -66577 0;
#X floatatom 290 187 5 0 0 0 - - -;
#X floatatom 290 166 5 0 0 0 - - -;
#X obj 290 87 r myduration;
#X obj 191 67 r \$0-duration;
#X obj 290 67 r grainduration;
#X obj 191 89 t b b;
#X obj 218 114 myrandom;
#X obj 191 142 *;
#X obj 191 116 f;
#X obj 191 164 *;
#X obj 191 186 +;
#X obj 290 114 t f f;
#X obj 191 704 *~;
#X floatatom 223 187 5 0 0 1 (ms) - -;
#X obj 423 45 t b b b b b;
#X obj 470 96 s \$0-vol;
#X obj 543 539 cnv 15 240 142 empty empty volume_del_grano 5 12 0 14
-204786 -66577 0;
#X obj 561 565 r \$0-vol;
#X floatatom 633 660 5 0 0 0 - - -;
#X floatatom 633 639 5 0 0 0 - - -;
#X obj 561 589 t b b;
#X obj 588 613 myrandom;
#X obj 561 614 f;
#X obj 561 636 *;
#X obj 561 658 +;
#X obj 633 565 r grainvolume;
#X obj 633 586 r myvolume;
#X obj 733 582 f;
#X obj 733 687 sig~;
#X connect 1 0 3 0;
#X connect 1 0 6 0;
#X connect 2 0 1 0;
#X connect 3 0 4 0;
#X connect 4 0 14 1;
#X connect 6 0 11 1;
#X connect 9 0 18 0;
#X connect 11 0 9 0;
#X connect 12 0 11 0;
#X connect 13 0 12 0;
#X connect 14 0 91 0;
#X connect 15 0 24 1;
#X connect 16 0 23 1;
#X connect 17 0 15 0;
#X connect 17 0 16 0;
#X connect 18 0 14 0;
#X connect 19 0 24 0;
#X connect 20 0 23 0;
#X connect 21 0 22 0;
#X connect 22 0 27 0;
#X connect 23 0 26 0;
#X connect 24 0 25 0;
#X connect 28 0 2 0;
#X connect 28 0 13 0;
#X connect 29 0 6 1;
#X connect 30 0 9 1;
#X connect 31 0 32 0;
#X connect 32 0 33 0;
#X connect 32 0 34 0;
#X connect 33 0 15 1;
#X connect 34 0 35 0;
#X connect 35 0 16 1;
#X connect 36 0 31 0;
#X connect 37 0 93 0;
#X connect 48 0 62 0;
#X connect 48 0 44 0;
#X connect 49 0 74 1;
#X connect 49 0 42 0;
#X connect 50 0 56 1;
#X connect 50 0 46 0;
#X connect 51 0 60 0;
#X connect 52 0 68 0;
#X connect 53 0 54 0;
#X connect 54 0 56 0;
#X connect 54 1 55 0;
#X connect 55 0 57 1;
#X connect 56 0 57 0;
#X connect 57 0 59 0;
#X connect 58 0 59 1;
#X connect 58 0 47 0;
#X connect 59 0 36 0;
#X connect 60 0 64 0;
#X connect 60 1 61 0;
#X connect 61 0 65 1;
#X connect 62 0 63 0;
#X connect 63 0 64 1;
#X connect 64 0 65 0;
#X connect 65 0 66 0;
#X connect 66 0 30 0;
#X connect 67 0 76 1;
#X connect 67 0 43 0;
#X connect 68 0 74 0;
#X connect 68 1 69 0;
#X connect 69 0 75 1;
#X connect 70 0 71 0;
#X connect 70 1 71 1;
#X connect 71 0 73 0;
#X connect 72 0 70 0;
#X connect 73 0 29 0;
#X connect 74 0 75 0;
#X connect 75 0 76 0;
#X connect 76 0 72 0;
#X connect 77 0 66 1;
#X connect 77 0 45 0;
#X connect 81 0 87 1;
#X connect 81 0 79 0;
#X connect 82 0 84 0;
#X connect 83 0 90 0;
#X connect 83 0 80 0;
#X connect 84 0 87 0;
#X connect 84 1 85 0;
#X connect 85 0 86 1;
#X connect 86 0 88 0;
#X connect 87 0 86 0;
#X connect 88 0 89 0;
#X connect 89 0 28 0;
#X connect 89 0 92 0;
#X connect 90 0 88 1;
#X connect 90 1 89 1;
#X connect 91 0 22 1;
#X connect 91 0 17 0;
#X connect 93 0 41 0;
#X connect 93 1 40 0;
#X connect 93 2 39 0;
#X connect 93 3 94 0;
#X connect 93 4 38 0;
#X connect 96 0 99 0;
#X connect 96 0 106 0;
#X connect 99 0 101 0;
#X connect 99 1 100 0;
#X connect 100 0 102 1;
#X connect 101 0 102 0;
#X connect 102 0 103 0;
#X connect 104 0 103 1;
#X connect 104 0 98 0;
#X connect 104 0 106 1;
#X connect 105 0 101 1;
#X connect 105 0 97 0;
#X connect 106 0 107 0;
#X connect 107 0 91 1;
