#N canvas 43 22 1172 738 10;
#X obj 342 719 cnv 15 230 150 empty empty grain_pan 5 12 0 14 -261234
-66577 0;
#X obj 353 257 vline~;
#X msg 353 235 0 \, 1 \$1 0;
#X obj 286 274 *~ 2048;
#X obj 286 663 tabread4~ grain-env;
#X obj 343 292 cnv 15 240 170 empty empty grain_pitch 5 12 0 14 -232576
-66577 0;
#X obj 353 437 *~;
#X obj 342 469 cnv 15 190 180 empty empty grain_start 5 12 0 14 -203904
-66577 0;
#X obj 191 632 +~;
#X text 461 541 samples;
#X obj 191 454 *~;
#X obj 191 427 /~ 1000;
#X obj 191 401 sig~;
#X obj 191 680 *~;
#X obj 191 861 *~;
#X obj 272 861 *~;
#X obj 191 823 *~ 0.5;
#X obj 191 656 tabread4~ src1;
#X obj 191 218 f;
#X obj 368 410 sig~;
#X obj 356 615 sig~;
#X obj 351 767 clip~ 0 1;
#X obj 351 789 *~ 0.25;
#X obj 351 844 cos~;
#X obj 385 822 -~ 0.25;
#X obj 385 844 cos~;
#X obj 351 744 sig~;
#X obj 423 22 inlet trigger;
#X obj 486 75 s \$0-pan;
#X obj 454 117 s \$0-start;
#X obj 438 137 s \$0-pitch;
#X obj 423 157 s \$0-duration;
#X floatatom 496 414 5 0 0 0 - - -, f 5;
#X floatatom 496 393 5 0 0 0 - - -, f 5;
#X floatatom 491 593 5 0 0 0 - - -, f 5;
#X floatatom 491 572 5 0 0 0 - - -, f 5;
#X floatatom 495 848 5 0 0 0 - - -, f 5;
#X floatatom 495 827 5 0 0 0 - - -, f 5;
#X obj 439 518 r mystart;
#X obj 496 340 r mypitch;
#X obj 495 772 r mypan;
#X obj 356 500 r \$0-start;
#X obj 424 321 r \$0-pitch;
#X obj 436 748 r \$0-pan;
#X obj 436 770 t b b;
#X obj 463 798 myrandom;
#X obj 436 798 f;
#X obj 436 822 *;
#X obj 495 748 r grainpan;
#X obj 436 846 +;
#X obj 356 522 t b b;
#X obj 383 547 myrandom;
#X obj 439 572 * 48000;
#X obj 439 592 / 1000;
#X obj 356 547 f;
#X obj 356 570 *;
#X obj 356 592 +;
#X obj 496 320 r grainpitch;
#X obj 424 343 t b b;
#X obj 451 367 myrandom;
#X obj 368 343 swap 2;
#X obj 368 365 pow;
#X obj 368 321 / 12;
#X obj 368 387 * 48000;
#X obj 424 368 f;
#X obj 424 390 *;
#X obj 424 412 +;
#X obj 439 498 r grainstart;
#X obj 174 42 cnv 15 220 170 empty empty grain_duration 5 12 0 14 -204800
-66577 0;
#X floatatom 290 187 5 0 0 0 - - -, f 5;
#X floatatom 290 166 5 0 0 0 - - -, f 5;
#X obj 290 87 r myduration;
#X obj 191 67 r \$0-duration;
#X obj 290 67 r grainduration;
#X obj 191 89 t b b;
#X obj 218 114 myrandom;
#X obj 191 142 *;
#X obj 191 116 f;
#X obj 191 164 *;
#X obj 191 186 +;
#X obj 290 114 t f f;
#X obj 191 704 *~;
#X floatatom 223 187 5 0 0 1 (ms) - -, f 5;
#X obj 423 45 t b b b b b;
#X obj 470 96 s \$0-vol;
#X obj 543 539 cnv 15 240 142 empty empty grain_volume 5 12 0 14 -204786
-66577 0;
#X obj 561 565 r \$0-vol;
#X floatatom 633 660 5 0 0 0 - - -, f 5;
#X floatatom 633 639 5 0 0 0 - - -, f 5;
#X obj 561 589 t b b;
#X obj 588 613 myrandom;
#X obj 561 614 f;
#X obj 561 636 *;
#X obj 561 658 +;
#X obj 633 565 r grainvolume;
#X obj 633 586 r myvolume;
#X obj 733 582 f;
#X obj 733 687 sig~;
#X obj 1 878 throw~ L;
#X obj 56 878 throw~ R;
#X obj 111 878 throw~ M;
#X obj 590 182 cnv 15 160 140 empty empty CPU_cost_reducer 20 12 0
14 -233017 -66577 0;
#X obj 641 230 delay;
#X obj 600 277 tgl 15 0 empty empty empty 17 7 0 10 -262144 -1 -1 0
1;
#X obj 600 203 t b f;
#X obj 600 297 switch~;
#X msg 600 252 1;
#X msg 641 252 0;
#X connect 1 0 3 0;
#X connect 1 0 6 0;
#X connect 2 0 1 0;
#X connect 3 0 4 0;
#X connect 4 0 13 1;
#X connect 6 0 10 1;
#X connect 8 0 17 0;
#X connect 10 0 8 0;
#X connect 11 0 10 0;
#X connect 12 0 11 0;
#X connect 13 0 81 0;
#X connect 14 0 98 0;
#X connect 15 0 99 0;
#X connect 16 0 14 0;
#X connect 16 0 15 0;
#X connect 17 0 13 0;
#X connect 18 0 2 0;
#X connect 18 0 12 0;
#X connect 19 0 6 1;
#X connect 20 0 8 1;
#X connect 21 0 22 0;
#X connect 22 0 23 0;
#X connect 22 0 24 0;
#X connect 23 0 14 1;
#X connect 24 0 25 0;
#X connect 25 0 15 1;
#X connect 26 0 21 0;
#X connect 27 0 83 0;
#X connect 38 0 52 0;
#X connect 38 0 34 0;
#X connect 39 0 64 1;
#X connect 39 0 32 0;
#X connect 40 0 46 1;
#X connect 40 0 36 0;
#X connect 41 0 50 0;
#X connect 42 0 58 0;
#X connect 43 0 44 0;
#X connect 44 0 46 0;
#X connect 44 1 45 0;
#X connect 45 0 47 1;
#X connect 46 0 47 0;
#X connect 47 0 49 0;
#X connect 48 0 49 1;
#X connect 48 0 37 0;
#X connect 49 0 26 0;
#X connect 50 0 54 0;
#X connect 50 1 51 0;
#X connect 51 0 55 1;
#X connect 52 0 53 0;
#X connect 53 0 54 1;
#X connect 54 0 55 0;
#X connect 55 0 56 0;
#X connect 56 0 20 0;
#X connect 57 0 66 1;
#X connect 57 0 33 0;
#X connect 58 0 64 0;
#X connect 58 1 59 0;
#X connect 59 0 65 1;
#X connect 60 0 61 0;
#X connect 60 1 61 1;
#X connect 61 0 63 0;
#X connect 62 0 60 0;
#X connect 63 0 19 0;
#X connect 64 0 65 0;
#X connect 65 0 66 0;
#X connect 66 0 62 0;
#X connect 67 0 56 1;
#X connect 67 0 35 0;
#X connect 71 0 77 1;
#X connect 71 0 69 0;
#X connect 72 0 74 0;
#X connect 73 0 80 0;
#X connect 73 0 70 0;
#X connect 74 0 77 0;
#X connect 74 1 75 0;
#X connect 75 0 76 1;
#X connect 76 0 78 0;
#X connect 77 0 76 0;
#X connect 78 0 79 0;
#X connect 79 0 18 0;
#X connect 79 0 82 0;
#X connect 79 0 104 0;
#X connect 80 0 78 1;
#X connect 80 1 79 1;
#X connect 81 0 16 0;
#X connect 81 0 100 0;
#X connect 83 0 31 0;
#X connect 83 1 30 0;
#X connect 83 2 29 0;
#X connect 83 3 84 0;
#X connect 83 4 28 0;
#X connect 86 0 89 0;
#X connect 86 0 96 0;
#X connect 89 0 91 0;
#X connect 89 1 90 0;
#X connect 90 0 92 1;
#X connect 91 0 92 0;
#X connect 92 0 93 0;
#X connect 94 0 93 1;
#X connect 94 0 88 0;
#X connect 94 0 96 1;
#X connect 95 0 91 1;
#X connect 95 0 87 0;
#X connect 96 0 97 0;
#X connect 97 0 81 1;
#X connect 102 0 107 0;
#X connect 103 0 105 0;
#X connect 104 0 106 0;
#X connect 104 0 102 0;
#X connect 104 1 102 1;
#X connect 106 0 103 0;
#X connect 107 0 103 0;
